<svg width="771" height="674" viewBox="0 0 771 674" fill="none" xmlns="http://www.w3.org/2000/svg">
<path fill-rule="evenodd" clip-rule="evenodd" d="M377.761 0.518391C279.173 7.66739 197.653 40.7844 131.537 100.544C96.6422 132.084 67.8992 171.294 45.1832 218.342C22.1312 266.084 8.02716 313.639 1.73116 364.842C-0.324842 381.566 -0.611842 424.787 1.20616 443.842C6.41216 498.391 21.0532 548.76 47.2782 602.342C58.8472 625.978 64.6782 634.772 76.7842 646.842C92.4172 662.428 109.462 670.879 129.82 673.138C157.093 676.165 186.882 662.964 207.754 638.602C214.583 630.632 232.649 603.656 274.564 538.842C310.819 482.782 310.832 482.762 319.97 473.244C357.098 434.571 410.281 433.826 448.27 471.447C457.464 480.552 458.883 482.582 493.306 535.842C545.432 616.494 556.067 632.164 565.027 641.521C575.579 652.541 584.01 658.923 595.261 664.408C608.577 670.901 617.774 673.049 632.261 673.049C657.382 673.049 676.698 664.229 696.001 643.944C706.12 633.311 711.92 624.274 722.704 602.342C747.344 552.227 762.086 503.678 768.405 451.842C770.888 431.466 770.896 386.978 768.42 366.842C761.01 306.584 741.263 250.186 708.198 194.842C640.979 82.3354 543.606 14.4444 430.761 1.40439C418.627 0.00239158 391.197 -0.456609 377.761 0.518391ZM419.267 71.3394C486.144 79.0434 544.216 107.491 593.809 156.842C616.985 179.906 634.289 202.289 652.543 232.818C687.071 290.563 703.763 347.722 703.76 408.198C703.758 462.443 690.587 515.539 663.664 569.842C651.317 594.746 644.421 601.347 630.761 601.338C622.819 601.332 617.317 598.478 610.388 590.772C601.982 581.422 601.941 575.193 610.195 560.842C656.354 480.585 664.599 395.915 634.686 309.318C609.882 237.512 562.968 183.165 498.292 151.313C448.557 126.819 394.867 118.749 342.33 127.872C238.463 145.908 155.098 225.993 127.405 334.342C111.283 397.416 115.428 460.781 139.616 521.057C144.08 532.179 156.582 556.826 159.543 560.342C165.594 567.525 167.434 577.504 164.034 584.691C161.67 589.687 154.819 596.136 148.565 599.252C137.99 604.522 125.063 601.537 118.806 592.38C116.052 588.349 98.3792 547.462 90.3052 526.443C77.7862 493.847 72.1692 470.483 68.8022 436.986C67.4692 423.722 67.4612 388.573 68.7892 374.342C76.2142 294.753 109.909 222.602 165.715 166.796C214.311 118.2 275.134 86.6654 342.878 74.9434C352.899 73.2094 358.789 72.4994 379.761 70.4964C389.141 69.6014 407.593 69.9944 419.267 71.3394ZM414.261 197.255C433.683 200.566 449.112 205.522 467.261 214.283C509.827 234.831 541.241 266.493 562.198 309.973C577.888 342.523 585.103 374.109 585.127 410.342C585.145 437.543 581.512 459.104 573.08 481.842C569.583 491.27 559.971 510.85 558.847 510.834C558.525 510.829 548.201 495.34 535.905 476.413C510.769 437.722 505.221 430.35 491.069 416.829C478.561 404.879 467.779 397.161 453.487 389.925C398.586 362.131 334.415 369.613 286.761 409.365C269.411 423.838 261.538 433.769 235.244 474.342C223.838 491.942 213.961 507.126 213.295 508.084C212.213 509.641 211.632 509.217 207.818 504.084C183.403 471.23 177.285 412.57 192.216 354.486C196.736 336.901 201.442 324.163 209.631 307.342C239.873 245.225 296.77 204.079 363.761 195.881C374.151 194.61 403.41 195.406 414.261 197.255ZM373.09 499.716C361.846 503.893 353.639 511.727 341.946 529.445C316.465 568.052 260.457 655.471 260.367 656.773C260.226 658.814 270.158 664.135 280.261 667.431C290.327 670.716 303.21 671.122 312.261 668.44C333.791 662.061 345.258 650.191 376.348 602.101C380.7 595.369 384.533 589.856 384.866 589.851C385.198 589.846 392.214 600.079 400.457 612.592C422.607 646.218 429.149 653.801 443.425 662.4C455.88 669.902 472.429 672.202 486.669 668.411C492.09 666.968 505.089 661.083 509.553 658.05C510.515 657.396 500.412 641.103 469.922 594.138C447.414 559.469 426.612 527.558 423.694 523.223C416.643 512.748 409.282 505.716 401.205 501.74C392.624 497.516 381.223 496.695 373.09 499.716Z" fill="black"/>
</svg>
